<svg xmlns="http://www.w3.org/2000/svg" width="87.724" height="35.937" viewBox="0 0 87.724 35.937"><defs><style>.a{fill:#dd4757;}.a,.b,.c{fill-rule:evenodd;}.b{fill:#4dacd1;}.c,.d{fill:#22365b;}.d{font-size:10px;font-family:RobotoSlab-Bold, Roboto Slab;font-weight:700;}</style></defs><g transform="translate(-0.465 -2.187)"><path class="a" d="M188.782,68.258a6.193,6.193,0,1,1,0-8.675L186.8,61.438a3.288,3.288,0,0,0-2.454-1.077,3.55,3.55,0,0,0,0,7.1,3.422,3.422,0,0,0,2.5-1.1Zm6.239,1.855a6.174,6.174,0,1,1,4.4-1.8A6.174,6.174,0,0,1,195.021,70.113Zm0-9.753a3.55,3.55,0,1,0,3.406,3.56,3.478,3.478,0,0,0-3.409-3.559Zm15.051.577a2.791,2.791,0,0,0-1.7-.577,3.38,3.38,0,0,0-3.18,3.56v5.867h-2.8V58.054h2.8v1.429l.051.025A4.735,4.735,0,0,1,211.5,58.48Zm6.306-3.21a5.026,5.026,0,0,1,3.63,1.6l.05-.025V58.054h2.805V69.788h-2.808V68.58l-.05-.05a5.1,5.1,0,0,1-3.63,1.58c-3.006,0-5.434-2.758-5.434-6.193s2.428-6.189,5.433-6.189Zm.6,9.729a3.563,3.563,0,1,0-3.234-3.548,3.563,3.563,0,0,0,3.234,3.548Z" transform="translate(-143.978 -44.997)"/><path class="a" d="M26.232,11.143l-6.5,4.511-6.384-4.435L6.957,15.66.465,11.147l12.883-8.96Z" transform="translate(0 0)"/><path class="b" d="M6.957,58.106V49.219L.465,44.706V62.624l12.883,8.958V62.554Z" transform="translate(0 -33.559)"/><path class="b" d="M61.611,96.089h6.413v-8.9H61.611Z" transform="translate(-48.262 -67.094)"/><path class="c" d="M61.611,105.142,74.5,96.183V87.224L61.611,96.113Z" transform="translate(-48.262 -67.119)"/><path class="a" d="M68.024,75.015l-6.413-4.468L67.994,66.1l6.5,4.452Z" transform="translate(-48.262 -50.444)"/><text class="d" transform="translate(34.189 35.124)"><tspan x="0" y="0">Annotation</tspan></text></g></svg>